<svg width="296" height="68" viewBox="0 0 296 68" fill="none" xmlns="http://www.w3.org/2000/svg">
<path d="M50.032 33.336C49.0293 34.5093 47.6747 35.448 45.968 36.152C44.2827 36.856 42.544 37.208 40.752 37.208C38.9813 37.208 37.4773 37.0373 36.24 36.696C34.768 37.7413 33.2 38.264 31.536 38.264V37.656C32.368 37.6347 32.9653 37.5173 33.328 37.304C33.712 37.112 34.0427 36.6853 34.32 36.024C33.2107 35.5333 32.24 34.9147 31.408 34.168C30.576 33.4 30.0107 32.7813 29.712 32.312C29.4347 31.8427 29.296 31.5653 29.296 31.48L29.872 31.256C29.872 31.3413 30 31.5973 30.256 32.024C30.5333 32.4507 31.056 33.0267 31.824 33.752C32.6133 34.456 33.52 35.032 34.544 35.48C34.8427 34.7333 35.088 33.8053 35.28 32.696L38.128 16.248C35.9093 16.4187 33.9467 16.856 32.24 17.56C33.6907 19.096 34.416 20.9307 34.416 23.064C34.416 25.0267 33.8827 26.6053 32.816 27.8C31.7707 28.9733 30.608 29.56 29.328 29.56C28.048 29.56 27.0667 29.176 26.384 28.408C25.7013 27.6187 25.36 26.6907 25.36 25.624C25.36 23.96 25.8293 22.4027 26.768 20.952C27.7067 19.48 29.1573 18.2747 31.12 17.336C29.712 16.1413 27.856 15.352 25.552 14.968L25.68 14.36C28.2613 14.8293 30.2773 15.736 31.728 17.08C34.3093 16.0347 37.456 15.512 41.168 15.512C44.9013 15.512 47.8347 16.3653 49.968 18.072C52.1013 19.7573 53.168 22.1147 53.168 25.144C53.168 28.2373 52.1227 30.968 50.032 33.336ZM40.24 36.632C42.2667 36.632 44.0907 36.2907 45.712 35.608C47.3333 34.9467 48.624 34.0613 49.584 32.952C51.568 30.6907 52.56 28.1627 52.56 25.368C52.56 22.552 51.6427 20.3547 49.808 18.776C47.9733 17.1973 45.4133 16.3227 42.128 16.152C41.0827 23.2133 40.2613 28.2907 39.664 31.384C39.28 33.3467 38.3413 34.968 36.848 36.248C37.9787 36.504 39.1093 36.632 40.24 36.632ZM25.968 25.624C25.968 26.4987 26.2453 27.2773 26.8 27.96C27.376 28.6213 28.2187 28.952 29.328 28.952C30.4587 28.952 31.4507 28.4613 32.304 27.48C33.1573 26.4987 33.648 25.2507 33.776 23.736C33.7973 23.4587 33.808 23.1813 33.808 22.904C33.808 20.984 33.072 19.288 31.6 17.816C29.68 18.6907 28.2613 19.8213 27.344 21.208C26.4267 22.5733 25.968 24.0453 25.968 25.624ZM61.8313 22.552C64.5406 22.552 65.8953 23.6293 65.8953 25.784C65.8953 27.128 65.2553 28.152 63.9753 28.856C62.7166 29.5387 60.9139 29.8907 58.5673 29.912C58.5246 30.68 58.5033 31.288 58.5033 31.736C58.5033 32.696 58.7166 33.4107 59.1433 33.88C59.5913 34.328 60.1459 34.552 60.8073 34.552C61.4686 34.552 62.0659 34.424 62.5993 34.168C63.1539 33.912 63.5913 33.6133 63.9113 33.272C64.2313 32.9093 64.5086 32.536 64.7433 32.152C65.1699 31.448 65.3833 31 65.3833 30.808L65.9593 31.064C65.8953 31.4053 65.7033 31.864 65.3833 32.44C65.0633 32.9947 64.7113 33.4533 64.3273 33.816C63.9433 34.1787 63.3779 34.52 62.6313 34.84C61.8846 35.1387 61.0526 35.288 60.1353 35.288C58.4073 35.288 57.0953 34.8827 56.1993 34.072C55.3246 33.24 54.8873 32.1093 54.8873 30.68C54.8873 28.1413 55.5166 26.1573 56.7753 24.728C58.0339 23.2773 59.7193 22.552 61.8313 22.552ZM65.0953 25.784C65.0953 25.08 64.8819 24.504 64.4553 24.056C64.0499 23.5867 63.4313 23.352 62.5993 23.352C61.7886 23.352 60.9886 23.8427 60.1993 24.824C59.4313 25.8053 58.9193 27.256 58.6633 29.176C62.9513 29.1547 65.0953 28.024 65.0953 25.784ZM72.246 28.824L71.094 35H67.286L70.902 14.904C70.262 14.968 69.7287 15.2667 69.302 15.8L68.822 15.416C69.462 14.648 70.262 14.264 71.222 14.264C72.2033 14.264 72.9607 14.5093 73.494 15C74.0273 15.4907 74.294 16.184 74.294 17.08C74.294 17.2507 74.2727 17.528 74.23 17.912C73.7393 20.6213 73.206 23.544 72.63 26.68C73.1633 25.3787 73.9313 24.3653 74.934 23.64C75.9367 22.9147 77.0033 22.552 78.134 22.552C79.2647 22.552 80.054 22.776 80.502 23.224C80.9713 23.672 81.206 24.2373 81.206 24.92C81.206 25.5813 81.0033 26.1253 80.598 26.552C80.1927 26.9787 79.6593 27.192 78.998 27.192C78.358 27.192 77.8567 27.0107 77.494 26.648C77.1527 26.264 76.982 25.7093 76.982 24.984C76.982 24.2373 77.238 23.672 77.75 23.288C75.702 23.5227 74.07 25.0373 72.854 27.832C73.1527 27.7893 73.4087 27.768 73.622 27.768C74.7527 27.768 75.638 27.992 76.278 28.44C76.9393 28.888 77.366 29.4427 77.558 30.104C77.75 30.744 77.8887 31.3947 77.974 32.056C78.0593 32.696 78.198 33.24 78.39 33.688C78.582 34.136 78.9233 34.36 79.414 34.36C79.9047 34.36 80.2887 34.1573 80.566 33.752L81.046 34.136C80.8967 34.4347 80.566 34.7013 80.054 34.936C79.542 35.1707 78.8807 35.288 78.07 35.288C77.2807 35.288 76.5767 35.0853 75.958 34.68C75.3607 34.2747 74.9447 33.7733 74.71 33.176C74.4753 32.5573 74.2833 31.9493 74.134 31.352C73.7287 29.816 73.0993 28.9733 72.246 28.824ZM86.912 35.288C85.2693 35.288 84.0213 34.8827 83.168 34.072C82.3147 33.24 81.888 32.2053 81.888 30.968C81.888 29.7093 81.9947 28.6427 82.208 27.768C82.4427 26.872 82.816 26.0187 83.328 25.208C83.84 24.376 84.608 23.7253 85.632 23.256C86.6773 22.7867 87.968 22.552 89.504 22.552C91.0613 22.552 92.2667 22.968 93.12 23.8C93.9947 24.6107 94.432 25.7307 94.432 27.16C94.432 29.592 93.7813 31.5547 92.48 33.048C91.2 34.5413 89.344 35.288 86.912 35.288ZM85.504 31.992C85.504 33.6987 85.9947 34.552 86.976 34.552C87.9787 34.552 88.864 33.6987 89.632 31.992C90.4213 30.264 90.816 28.216 90.816 25.848C90.816 24.056 90.3253 23.16 89.344 23.16C88.384 23.16 87.4987 23.9813 86.688 25.624C85.8987 27.2453 85.504 29.368 85.504 31.992ZM96.205 23.704C96.845 22.936 97.645 22.552 98.605 22.552C99.5863 22.552 100.344 22.7973 100.877 23.288C101.41 23.7787 101.677 24.472 101.677 25.368V25.56C102.637 23.5547 103.885 22.552 105.421 22.552C107.064 22.552 107.885 23.4053 107.885 25.112C107.885 25.816 107.65 26.5627 107.181 27.352C106.712 28.1413 106.242 28.8987 105.773 29.624C105.304 30.328 105.069 30.9573 105.069 31.512H104.301C104.301 30.7227 104.76 29.656 105.677 28.312C106.594 26.968 107.053 25.9333 107.053 25.208C107.053 24.4613 106.904 23.96 106.605 23.704C106.328 23.4267 105.901 23.288 105.325 23.288C104.77 23.288 104.216 23.5333 103.661 24.024C103.128 24.5147 102.68 25.1333 102.317 25.88C101.741 26.9893 101.357 27.896 101.165 28.6V28.632L100.013 35H96.173L98.285 23.192C97.645 23.256 97.1117 23.5547 96.685 24.088L96.205 23.704ZM119.84 35.288C117.963 35.288 116.939 34.4667 116.768 32.824C115.83 34.4667 114.646 35.288 113.216 35.288C111.787 35.288 110.646 34.8613 109.792 34.008C108.96 33.1333 108.544 31.9173 108.544 30.36C108.544 27.928 109.142 26.0187 110.336 24.632C111.531 23.2453 113.078 22.552 114.976 22.552C116.534 22.552 117.568 23.288 118.08 24.76C118.187 24.12 118.304 23.48 118.432 22.84C120.011 22.84 121.184 22.776 121.952 22.648L122.368 22.552L120.16 34.648C120.8 34.584 121.334 34.2853 121.76 33.752L122.24 34.136C121.6 34.904 120.8 35.288 119.84 35.288ZM112.16 31.992C112.16 32.952 112.278 33.624 112.512 34.008C112.768 34.3707 113.152 34.552 113.664 34.552C114.176 34.552 114.699 34.2747 115.232 33.72C115.936 32.9947 116.502 32.0773 116.928 30.968C116.992 30.6907 117.11 30.0293 117.28 28.984C117.472 27.9173 117.632 27.0427 117.76 26.36C117.696 25.5493 117.472 24.8453 117.088 24.248C116.704 23.6507 116.224 23.352 115.648 23.352C114.603 23.352 113.76 24.2907 113.12 26.168C112.48 28.024 112.16 29.9653 112.16 31.992ZM131.756 28.312C131.308 27.864 131.084 27.32 131.084 26.68C131.084 26.04 131.308 25.496 131.756 25.048C132.204 24.5787 132.748 24.344 133.388 24.344C133.58 24.344 133.826 24.3867 134.124 24.472C133.719 23.7253 132.962 23.352 131.852 23.352C130.743 23.352 129.762 24.056 128.908 25.464C128.055 26.872 127.628 28.9627 127.628 31.736C127.628 32.696 127.842 33.4107 128.268 33.88C128.716 34.328 129.271 34.552 129.932 34.552C130.594 34.552 131.191 34.424 131.724 34.168C132.279 33.912 132.716 33.6133 133.036 33.272C133.356 32.9093 133.634 32.536 133.868 32.152C134.295 31.448 134.508 31 134.508 30.808L135.084 31.064C135.02 31.4053 134.828 31.864 134.508 32.44C134.188 32.9947 133.836 33.4533 133.452 33.816C133.068 34.1787 132.503 34.52 131.756 34.84C131.01 35.1387 130.178 35.288 129.26 35.288C127.532 35.288 126.22 34.8827 125.324 34.072C124.45 33.24 124.012 32.1093 124.012 30.68C124.012 28.1413 124.642 26.1573 125.9 24.728C127.18 23.2773 128.908 22.552 131.084 22.552C132.556 22.552 133.687 22.9253 134.476 23.672C135.266 24.4187 135.66 25.4 135.66 26.616C135.66 27.384 135.426 27.9707 134.956 28.376C134.508 28.7813 133.975 28.984 133.356 28.984C132.738 28.984 132.204 28.76 131.756 28.312ZM143.925 22.552C146.634 22.552 147.989 23.6293 147.989 25.784C147.989 27.128 147.349 28.152 146.069 28.856C144.81 29.5387 143.008 29.8907 140.661 29.912C140.618 30.68 140.597 31.288 140.597 31.736C140.597 32.696 140.81 33.4107 141.237 33.88C141.685 34.328 142.24 34.552 142.901 34.552C143.562 34.552 144.16 34.424 144.693 34.168C145.248 33.912 145.685 33.6133 146.005 33.272C146.325 32.9093 146.602 32.536 146.837 32.152C147.264 31.448 147.477 31 147.477 30.808L148.053 31.064C147.989 31.4053 147.797 31.864 147.477 32.44C147.157 32.9947 146.805 33.4533 146.421 33.816C146.037 34.1787 145.472 34.52 144.725 34.84C143.978 35.1387 143.146 35.288 142.229 35.288C140.501 35.288 139.189 34.8827 138.293 34.072C137.418 33.24 136.981 32.1093 136.981 30.68C136.981 28.1413 137.61 26.1573 138.869 24.728C140.128 23.2773 141.813 22.552 143.925 22.552ZM147.189 25.784C147.189 25.08 146.976 24.504 146.549 24.056C146.144 23.5867 145.525 23.352 144.693 23.352C143.882 23.352 143.082 23.8427 142.293 24.824C141.525 25.8053 141.013 27.256 140.757 29.176C145.045 29.1547 147.189 28.024 147.189 25.784ZM195.968 38.168C195.158 38.9787 194.102 39.384 192.8 39.384C191.52 39.384 190.496 38.9573 189.728 38.104C188.96 37.272 188.576 36.1733 188.576 34.808C188.576 33.4213 188.822 31.832 189.312 30.04L190.752 25.304C188.96 27.5653 187.318 29.7307 185.824 31.8C182.88 35.8747 180.886 38.6053 179.84 39.992L179.264 39.832L178.016 24.344L175.456 29.016C173.024 33.6027 170.987 36.6213 169.344 38.072C167.723 39.544 165.558 40.28 162.848 40.28C160.544 40.28 158.635 39.4587 157.12 37.816C155.926 36.472 155.328 34.8613 155.328 32.984C155.328 32.6427 155.35 32.2907 155.392 31.928L156.032 31.992C155.99 32.3333 155.968 32.664 155.968 32.984C155.968 34.712 156.512 36.1733 157.6 37.368C158.987 38.8827 160.736 39.64 162.848 39.64C165.387 39.64 167.435 38.9253 168.992 37.496C170.55 36.088 172.512 33.1653 174.88 28.728L180.64 18.264C178.379 18.2213 176.182 17.8693 174.048 17.208C171.936 16.5253 170.038 16.184 168.352 16.184C166.688 16.184 165.291 16.7707 164.16 17.944C163.03 19.1173 162.464 20.632 162.464 22.488H161.824C161.824 20.44 162.443 18.776 163.68 17.496C164.939 16.1947 166.56 15.544 168.544 15.544C170.144 15.544 172.043 15.896 174.24 16.6C176.459 17.2827 178.848 17.624 181.408 17.624L182.752 34.904L183.392 34.008C187.894 27.8213 191.371 23.4053 193.824 20.76C196.278 18.0933 198.262 16.76 199.776 16.76V17.4C199.115 17.4 198.272 17.7627 197.248 18.488C197.099 18.9573 196.598 20.5893 195.744 23.384C194.891 26.1573 194.123 28.5893 193.44 30.68C192.779 32.7493 192.448 34.4453 192.448 35.768C192.448 37.0907 192.683 38.072 193.152 38.712C193.6 38.712 194.016 38.616 194.4 38.424C194.806 38.2533 195.104 38.072 195.296 37.88L195.552 37.624L195.968 38.168ZM203.756 35.288C202.113 35.288 200.865 34.8827 200.012 34.072C199.158 33.24 198.732 32.2053 198.732 30.968C198.732 29.7093 198.838 28.6427 199.052 27.768C199.286 26.872 199.66 26.0187 200.172 25.208C200.684 24.376 201.452 23.7253 202.476 23.256C203.521 22.7867 204.812 22.552 206.348 22.552C207.905 22.552 209.11 22.968 209.964 23.8C210.838 24.6107 211.276 25.7307 211.276 27.16C211.276 29.592 210.625 31.5547 209.324 33.048C208.044 34.5413 206.188 35.288 203.756 35.288ZM202.348 31.992C202.348 33.6987 202.838 34.552 203.82 34.552C204.822 34.552 205.708 33.6987 206.476 31.992C207.265 30.264 207.66 28.216 207.66 25.848C207.66 24.056 207.169 23.16 206.188 23.16C205.228 23.16 204.342 23.9813 203.532 25.624C202.742 27.2453 202.348 29.368 202.348 31.992ZM225.241 34.648C225.753 34.648 226.286 34.3493 226.841 33.752L227.321 34.136C227.171 34.4347 226.841 34.7013 226.329 34.936C225.817 35.1707 225.251 35.288 224.633 35.288C222.691 35.288 221.721 34.4133 221.721 32.664C221.721 31.9173 221.913 30.584 222.297 28.664C222.681 26.744 222.873 25.4853 222.873 24.888C222.873 23.9707 222.435 23.512 221.561 23.512C220.857 23.512 220.174 23.9707 219.513 24.888C218.873 25.8053 218.339 27.064 217.913 28.664L216.825 34.648C217.486 34.584 218.03 34.2853 218.457 33.752L218.937 34.136C218.297 34.904 217.497 35.288 216.537 35.288C215.577 35.288 214.819 35.0427 214.265 34.552C213.731 34.0613 213.465 33.4213 213.465 32.632C213.465 32.3333 213.635 31.16 213.977 29.112L215.033 23.192C214.393 23.256 213.859 23.5547 213.433 24.088L212.953 23.704C213.593 22.936 214.393 22.552 215.353 22.552C216.334 22.552 217.091 22.7973 217.625 23.288C218.158 23.7787 218.425 24.472 218.425 25.368V25.56C219.299 23.5547 220.665 22.552 222.521 22.552C223.779 22.552 224.761 22.9147 225.465 23.64C226.169 24.344 226.521 25.3253 226.521 26.584C226.521 27.2453 226.318 28.5253 225.913 30.424C225.507 32.3013 225.283 33.7093 225.241 34.648ZM240.122 35.288C238.244 35.288 237.22 34.4667 237.05 32.824C236.111 34.4667 234.927 35.288 233.498 35.288C232.068 35.288 230.927 34.8613 230.074 34.008C229.242 33.1333 228.826 31.9173 228.826 30.36C228.826 27.928 229.423 26.0187 230.618 24.632C231.812 23.2453 233.359 22.552 235.258 22.552C236.815 22.552 237.85 23.288 238.362 24.76C238.468 24.12 238.586 23.48 238.714 22.84C240.292 22.84 241.466 22.776 242.234 22.648L242.65 22.552L240.442 34.648C241.082 34.584 241.615 34.2853 242.042 33.752L242.522 34.136C241.882 34.904 241.082 35.288 240.122 35.288ZM232.442 31.992C232.442 32.952 232.559 33.624 232.794 34.008C233.05 34.3707 233.434 34.552 233.946 34.552C234.458 34.552 234.98 34.2747 235.514 33.72C236.218 32.9947 236.783 32.0773 237.21 30.968C237.274 30.6907 237.391 30.0293 237.562 28.984C237.754 27.9173 237.914 27.0427 238.042 26.36C237.978 25.5493 237.754 24.8453 237.37 24.248C236.986 23.6507 236.506 23.352 235.93 23.352C234.884 23.352 234.042 24.2907 233.402 26.168C232.762 28.024 232.442 29.9653 232.442 31.992Z" fill="white"/>
<rect x="0.5" y="0.5" width="271" height="57" stroke="white"/>
<rect x="143" y="52" width="107" height="12" fill="#465544"/>
<path d="M144.328 60.375V54.3516C144.328 53.8776 144.286 53.5703 144.203 53.4297C144.12 53.2891 143.956 53.1927 143.711 53.1406L143.258 53.0469V52.7031H146.297V53.0547L145.766 53.1719C145.578 53.2135 145.469 53.2734 145.438 53.3516C145.401 53.4297 145.383 53.6224 145.383 53.9297V61.5156H148.273C148.654 61.5156 148.906 61.224 149.031 60.6406C149.068 60.4688 149.086 60.3151 149.086 60.1797H149.492V62H143.297V61.6875L143.75 61.5938C144.026 61.5469 144.193 61.4427 144.25 61.2812C144.302 61.1198 144.328 60.8177 144.328 60.375ZM150.133 56.0312V55.7188H151.922V58.9844C151.922 59.0573 151.914 59.3073 151.898 59.7344C151.857 60.9479 152.281 61.5599 153.172 61.5703C153.667 61.5703 154.096 61.3724 154.461 60.9766C154.826 60.5807 155.008 60.1328 155.008 59.6328V57.7344C155.008 57.0417 154.977 56.6016 154.914 56.4141C154.831 56.1641 154.534 56.0391 154.023 56.0391V55.7188H155.977V60.3047C155.977 60.8724 156.094 61.2109 156.328 61.3203C156.438 61.3672 156.646 61.3828 156.953 61.3672L156.992 61.6406L155.289 62.2266L155.008 61.1953L154.75 61.4453C154.141 61.9714 153.5 62.237 152.828 62.2422C151.995 62.2422 151.445 61.9245 151.18 61.2891C151.023 60.9141 150.945 60.4036 150.945 59.7578V57.3125C150.945 56.6719 150.812 56.2656 150.547 56.0938C150.427 56.0208 150.289 56 150.133 56.0312ZM162.352 61.2578L160.906 59.4141L160.75 59.1953C160.714 59.2578 160.477 59.6172 160.039 60.2734C159.607 60.9297 159.388 61.2839 159.383 61.3359C159.383 61.4557 159.557 61.5443 159.906 61.6016L160.312 61.6719V62H157.453V61.6797L158.062 61.5547C158.271 61.513 158.487 61.3516 158.711 61.0703C158.935 60.7839 159.169 60.4609 159.414 60.1016L160.406 58.6484L160.172 58.3203C159.188 56.9141 158.505 56.1745 158.125 56.1016L157.742 56.0391V55.7188H160.773V56.0547L160.352 56.1328C160.081 56.1745 159.935 56.2214 159.914 56.2734C159.893 56.3255 159.883 56.3672 159.883 56.3984C159.883 56.5755 160.065 56.9115 160.43 57.4062L160.938 58.0938C161.073 57.9375 161.312 57.6354 161.656 57.1875C162 56.7344 162.172 56.4714 162.172 56.3984C162.161 56.2526 161.945 56.151 161.523 56.0938L161.273 56.0547V55.7188H164.133V56.0391L163.805 56.1016C163.393 56.1849 162.922 56.5495 162.391 57.1953C162.375 57.2161 162.247 57.3724 162.008 57.6641C161.773 57.9505 161.544 58.25 161.32 58.5625L162.242 59.7344L162.391 59.9219C163.245 61.0208 163.818 61.5911 164.109 61.6328L164.477 61.6797V62H161.453V61.6719L161.984 61.5547C162.255 61.4974 162.393 61.4453 162.398 61.3984C162.404 61.3516 162.388 61.3047 162.352 61.2578ZM164.617 56.0312V55.7188H166.406V58.9844C166.406 59.0573 166.398 59.3073 166.383 59.7344C166.341 60.9479 166.766 61.5599 167.656 61.5703C168.151 61.5703 168.581 61.3724 168.945 60.9766C169.31 60.5807 169.492 60.1328 169.492 59.6328V57.7344C169.492 57.0417 169.461 56.6016 169.398 56.4141C169.315 56.1641 169.018 56.0391 168.508 56.0391V55.7188H170.461V60.3047C170.461 60.8724 170.578 61.2109 170.812 61.3203C170.922 61.3672 171.13 61.3828 171.438 61.3672L171.477 61.6406L169.773 62.2266L169.492 61.1953L169.234 61.4453C168.625 61.9714 167.984 62.237 167.312 62.2422C166.479 62.2422 165.93 61.9245 165.664 61.2891C165.508 60.9141 165.43 60.4036 165.43 59.7578V57.3125C165.43 56.6719 165.297 56.2656 165.031 56.0938C164.911 56.0208 164.773 56 164.617 56.0312ZM176.547 56.7422L175.695 56.6406C175.268 56.6458 174.919 56.862 174.648 57.2891C174.555 57.4453 174.508 57.6823 174.508 58V60.7812C174.508 61.1667 174.677 61.4245 175.016 61.5547C175.021 61.5599 175.115 61.5885 175.297 61.6406C175.479 61.6875 175.578 61.7135 175.594 61.7188V62H172.633V61.7188C172.648 61.7083 172.701 61.6927 172.789 61.6719C173.164 61.5833 173.404 61.4453 173.508 61.2578C173.56 61.1536 173.589 61.0391 173.594 60.9141V57.0703C173.594 56.8203 173.461 56.6693 173.195 56.6172C173.117 56.6016 172.948 56.5885 172.688 56.5781L172.648 56.3047L174.57 55.5703L174.586 56.8047L174.859 56.5156C175.448 55.9688 176.023 55.6953 176.586 55.6953C176.919 55.6953 177.089 55.8568 177.094 56.1797C177.094 56.4401 176.987 56.6146 176.773 56.7031C176.701 56.7292 176.625 56.7422 176.547 56.7422ZM176.969 56.0781V55.7188H179.648V56.0781C179.237 56.0781 179.034 56.2188 179.039 56.5C179.044 56.6458 179.094 56.8438 179.188 57.0938L180.586 60.7812C180.914 60.0156 181.245 59.1823 181.578 58.2812L182.164 56.6797C182.273 56.3672 182.185 56.1771 181.898 56.1094C181.799 56.0885 181.677 56.0781 181.531 56.0781V55.7188H183.898V56.0781C183.523 56.0885 183.263 56.1979 183.117 56.4062C183.055 56.5 182.812 57.0885 182.391 58.1719C181.974 59.2552 181.346 60.7552 180.508 62.6719C179.674 64.5938 179.203 65.6536 179.094 65.8516C178.745 66.4818 178.341 66.888 177.883 67.0703C177.628 67.1536 177.362 67.1953 177.086 67.1953C176.758 67.1953 176.458 67.1276 176.188 66.9922C175.911 66.8568 175.773 66.6797 175.773 66.4609C175.768 66.2474 175.818 66.1016 175.922 66.0234C176.026 65.9453 176.138 65.9089 176.258 65.9141C176.529 65.9193 176.763 66.0573 176.961 66.3281C177.154 66.6042 177.336 66.7448 177.508 66.75C177.68 66.75 177.867 66.6276 178.07 66.3828C178.279 66.1432 178.495 65.7552 178.719 65.2188L179.453 63.4766L180.039 61.9766L178.234 57.3281C178.057 56.8698 177.891 56.5469 177.734 56.3594C177.578 56.1719 177.323 56.0781 176.969 56.0781ZM188.5 53.0312V52.7031H191.805C193.628 52.7031 194.953 53.1042 195.781 53.9062C196.609 54.7031 197.023 55.8594 197.023 57.375C197.023 59.3646 196.169 60.7214 194.461 61.4453C193.591 61.8099 192.562 61.9948 191.375 62C189.156 62 187.758 61.4141 187.18 60.2422C186.987 59.8516 186.891 59.401 186.891 58.8906C186.891 57.7604 187.409 56.9271 188.445 56.3906C188.779 56.2188 189.151 56.0885 189.562 56V54.3438C189.562 53.8698 189.523 53.5625 189.445 53.4219C189.367 53.276 189.206 53.1771 188.961 53.125L188.5 53.0312ZM193.102 56.6016C193.102 56.9609 192.911 57.1432 192.531 57.1484C192.333 57.1484 192.138 57.0469 191.945 56.8438C191.753 56.6406 191.599 56.5052 191.484 56.4375C191.333 56.3438 191.036 56.3177 190.594 56.3594V61.5C190.693 61.5104 190.807 61.5156 190.938 61.5156H191.461C192.607 61.5156 193.562 61.2526 194.328 60.7266C195.349 60.0182 195.862 58.9115 195.867 57.4062C195.867 55.3906 195.13 54.0938 193.656 53.5156C193.115 53.3073 192.497 53.2031 191.805 53.2031H190.594V55.8672C190.667 55.862 190.76 55.8594 190.875 55.8594C191.859 55.8594 192.495 55.9375 192.781 56.0938C192.99 56.2083 193.096 56.3776 193.102 56.6016ZM189.562 56.5625C188.276 56.9688 187.63 57.7578 187.625 58.9297C187.625 59.9349 188.151 60.6693 189.203 61.1328C189.469 61.2474 189.758 61.3385 190.07 61.4062C189.909 61.3177 189.74 61.1719 189.562 60.9688V56.5625ZM200.703 55.5469C201.703 55.5469 202.331 55.9375 202.586 56.7188C202.701 57.0729 202.732 57.4193 202.68 57.7578H198.938C198.87 58.1328 198.836 58.4818 198.836 58.8047C198.836 59.9036 199.164 60.6536 199.82 61.0547C200.169 61.2682 200.589 61.375 201.078 61.375C201.589 61.375 202.102 61.1875 202.617 60.8125L202.844 61.0469L202.625 61.3047C202.031 61.9245 201.328 62.237 200.516 62.2422C200.031 62.2422 199.583 62.0964 199.172 61.8047C198.344 61.2161 197.93 60.3255 197.93 59.1328C197.93 57.8724 198.281 56.9167 198.984 56.2656C199.516 55.8021 200.089 55.5625 200.703 55.5469ZM199.016 57.25H201.672C201.672 56.8385 201.578 56.5339 201.391 56.3359C201.203 56.1328 200.964 56.0312 200.672 56.0312C200.219 56.0312 199.849 56.1667 199.562 56.4375C199.276 56.7031 199.094 56.974 199.016 57.25ZM205.234 57.0234C204.927 57.5651 204.773 58.2031 204.773 58.9375C204.773 59.6667 204.974 60.2604 205.375 60.7188C205.776 61.1771 206.286 61.4089 206.906 61.4141C207.526 61.4141 208.094 61.2812 208.609 61.0156L208.859 61.2891C208.609 61.5286 208.419 61.6927 208.289 61.7812C207.82 62.0938 207.284 62.2526 206.68 62.2578C205.497 62.2578 204.667 61.7552 204.188 60.75C203.932 60.2188 203.805 59.625 203.805 58.9688C203.805 57.8698 204.138 57.0052 204.805 56.375C205.372 55.8385 206.031 55.5703 206.781 55.5703C207.542 55.5703 208.281 55.8255 209 56.3359C209.089 56.3932 209.099 56.5339 209.031 56.7578C208.964 56.9818 208.823 57.138 208.609 57.2266C208.448 57.2266 208.281 57.1068 208.109 56.8672C207.943 56.6224 207.846 56.487 207.82 56.4609C207.565 56.1797 207.232 56.0365 206.82 56.0312C206.143 56.0312 205.615 56.362 205.234 57.0234ZM209.773 59.0078C209.773 58.0599 210.044 57.2578 210.586 56.6016C211.128 55.9401 211.786 55.6094 212.562 55.6094C213.349 55.6094 214.036 55.9167 214.625 56.5312C215.214 57.1458 215.508 57.9193 215.508 58.8516C215.508 59.7839 215.253 60.5599 214.742 61.1797C214.154 61.8932 213.477 62.25 212.711 62.25C211.893 62.2552 211.201 61.9505 210.633 61.3359C210.065 60.7161 209.779 59.9401 209.773 59.0078ZM212.445 56.1953C211.893 56.1953 211.469 56.4453 211.172 56.9453C210.875 57.4453 210.727 58.0677 210.727 58.8125C210.727 59.5521 210.914 60.2135 211.289 60.7969C211.669 61.375 212.169 61.6667 212.789 61.6719C213.367 61.6719 213.799 61.4193 214.086 60.9141C214.378 60.4036 214.523 59.8047 214.523 59.1172C214.523 58.3828 214.346 57.7135 213.992 57.1094C213.638 56.5052 213.122 56.2005 212.445 56.1953ZM220.438 56.7422L219.586 56.6406C219.159 56.6458 218.81 56.862 218.539 57.2891C218.445 57.4453 218.398 57.6823 218.398 58V60.7812C218.398 61.1667 218.568 61.4245 218.906 61.5547C218.911 61.5599 219.005 61.5885 219.188 61.6406C219.37 61.6875 219.469 61.7135 219.484 61.7188V62H216.523V61.7188C216.539 61.7083 216.591 61.6927 216.68 61.6719C217.055 61.5833 217.294 61.4453 217.398 61.2578C217.451 61.1536 217.479 61.0391 217.484 60.9141V57.0703C217.484 56.8203 217.352 56.6693 217.086 56.6172C217.008 56.6016 216.839 56.5885 216.578 56.5781L216.539 56.3047L218.461 55.5703L218.477 56.8047L218.75 56.5156C219.339 55.9688 219.914 55.6953 220.477 55.6953C220.81 55.6953 220.979 55.8568 220.984 56.1797C220.984 56.4401 220.878 56.6146 220.664 56.7031C220.591 56.7292 220.516 56.7422 220.438 56.7422ZM227.102 61.3359C227.091 61.362 227.052 61.4245 226.984 61.5234C226.922 61.6224 226.839 61.7266 226.734 61.8359C226.635 61.9453 226.521 62.0417 226.391 62.125C226.26 62.2135 226.125 62.2578 225.984 62.2578C225.781 62.2578 225.617 62.2109 225.492 62.1172C225.367 62.0234 225.268 61.9062 225.195 61.7656C225.122 61.625 225.07 61.4766 225.039 61.3203C225.008 61.1589 224.987 61.0156 224.977 60.8906C224.94 60.9219 224.872 61.0104 224.773 61.1562C224.674 61.3021 224.542 61.4583 224.375 61.625C224.208 61.7865 224.003 61.9323 223.758 62.0625C223.518 62.1927 223.24 62.2578 222.922 62.2578C222.766 62.2578 222.602 62.237 222.43 62.1953C222.263 62.1536 222.112 62.0833 221.977 61.9844C221.841 61.8802 221.729 61.7422 221.641 61.5703C221.552 61.3932 221.508 61.1745 221.508 60.9141C221.508 60.5443 221.63 60.237 221.875 59.9922C222.12 59.7474 222.424 59.5547 222.789 59.4141C223.154 59.2734 223.487 59.1719 223.789 59.1094C224.096 59.0417 224.461 58.9661 224.883 58.8828V57.5781C224.883 57.4635 224.878 57.3203 224.867 57.1484C224.862 56.9714 224.831 56.8021 224.773 56.6406C224.721 56.474 224.633 56.3333 224.508 56.2188C224.388 56.099 224.214 56.0391 223.984 56.0391C223.703 56.0391 223.471 56.0938 223.289 56.2031C223.112 56.3125 222.982 56.4115 222.898 56.5C222.815 56.5885 222.701 56.7188 222.555 56.8906C222.378 56.9115 222.237 56.9089 222.133 56.8828C222.034 56.8516 221.951 56.8073 221.883 56.75C221.82 56.6875 221.789 56.6042 221.789 56.5C221.789 56.349 221.904 56.2057 222.133 56.0703C222.362 55.9349 222.659 55.8151 223.023 55.7109C223.393 55.6016 223.742 55.5469 224.07 55.5469C224.367 55.5469 224.617 55.5911 224.82 55.6797C225.023 55.763 225.19 55.8802 225.32 56.0312C225.451 56.1771 225.549 56.349 225.617 56.5469C225.685 56.7396 225.732 56.9453 225.758 57.1641C225.789 57.3828 225.805 57.6068 225.805 57.8359C225.81 58.0651 225.812 58.2865 225.812 58.5C225.812 58.8958 225.807 59.2812 225.797 59.6562C225.786 60.0312 225.789 60.3672 225.805 60.6641C225.82 60.9557 225.859 61.1927 225.922 61.375C225.99 61.5521 226.099 61.6406 226.25 61.6406C226.443 61.6406 226.638 61.4635 226.836 61.1094L227.102 61.3359ZM224.883 59.3984C224.461 59.4609 224.099 59.5312 223.797 59.6094C223.5 59.6875 223.263 59.7865 223.086 59.9062C222.914 60.026 222.781 60.1615 222.688 60.3125C222.599 60.4583 222.555 60.638 222.555 60.8516C222.555 61.3724 222.784 61.6328 223.242 61.6328C223.409 61.6328 223.581 61.5729 223.758 61.4531C223.935 61.3333 224.099 61.1901 224.25 61.0234C224.401 60.8516 224.534 60.6745 224.648 60.4922C224.763 60.3099 224.841 60.1589 224.883 60.0391V59.3984ZM230.891 56.3203H229.266V59.4297C229.266 59.8776 229.271 60.2995 229.281 60.6953C229.292 61.0859 229.352 61.3542 229.461 61.5C229.576 61.6406 229.74 61.7109 229.953 61.7109C230.333 61.7109 230.74 61.6068 231.172 61.3984V61.8203C230.62 62.112 230.148 62.2578 229.758 62.2578C229.388 62.2578 229.102 62.1953 228.898 62.0703C228.701 61.9505 228.555 61.7943 228.461 61.6016C228.372 61.4036 228.32 61.1823 228.305 60.9375C228.289 60.6927 228.281 60.4479 228.281 60.2031V56.8516C228.281 56.737 228.279 56.6484 228.273 56.5859C228.273 56.5234 228.263 56.4688 228.242 56.4219C228.227 56.375 228.185 56.3464 228.117 56.3359C228.049 56.3255 227.948 56.3203 227.812 56.3203H227.375V55.9531C227.875 55.7396 228.219 55.5339 228.406 55.3359C228.594 55.138 228.794 54.7943 229.008 54.3047H229.266V55.7344H230.891V56.3203ZM233.93 55.6094V60.3672C233.93 60.8464 233.964 61.1589 234.031 61.3047C234.099 61.4453 234.258 61.5417 234.508 61.5938L234.969 61.6797V62H232.008V61.6719L232.547 61.5547C232.74 61.513 232.859 61.4531 232.906 61.375C232.948 61.2865 232.969 61.0964 232.969 60.8047V57.2891C232.969 56.9297 232.953 56.7109 232.922 56.6328C232.849 56.4505 232.557 56.3594 232.047 56.3594L232.008 56.0938L233.93 55.6094ZM232.594 52.5547C232.594 52.3724 232.654 52.2188 232.773 52.0938C232.898 51.9635 233.052 51.8984 233.234 51.8984C233.411 51.8984 233.562 51.9635 233.688 52.0938C233.818 52.2188 233.883 52.3724 233.883 52.5547C233.883 52.7318 233.818 52.8828 233.688 53.0078C233.562 53.1276 233.411 53.1875 233.234 53.1875C233.052 53.1875 232.898 53.1276 232.773 53.0078C232.654 52.8828 232.594 52.7318 232.594 52.5547ZM235.93 59.0078C235.93 58.0599 236.201 57.2578 236.742 56.6016C237.284 55.9401 237.943 55.6094 238.719 55.6094C239.505 55.6094 240.193 55.9167 240.781 56.5312C241.37 57.1458 241.664 57.9193 241.664 58.8516C241.664 59.7839 241.409 60.5599 240.898 61.1797C240.31 61.8932 239.633 62.25 238.867 62.25C238.049 62.2552 237.357 61.9505 236.789 61.3359C236.221 60.7161 235.935 59.9401 235.93 59.0078ZM238.602 56.1953C238.049 56.1953 237.625 56.4453 237.328 56.9453C237.031 57.4453 236.883 58.0677 236.883 58.8125C236.883 59.5521 237.07 60.2135 237.445 60.7969C237.826 61.375 238.326 61.6667 238.945 61.6719C239.523 61.6719 239.956 61.4193 240.242 60.9141C240.534 60.4036 240.68 59.8047 240.68 59.1172C240.68 58.3828 240.503 57.7135 240.148 57.1094C239.794 56.5052 239.279 56.2005 238.602 56.1953ZM246.562 56.2734C245.818 56.2734 245.164 56.4714 244.602 56.8672V60.3672C244.602 60.8464 244.635 61.1589 244.703 61.3047C244.771 61.4453 244.93 61.5417 245.18 61.5938L245.641 61.6797V62H242.68V61.6719L243.219 61.5547C243.411 61.513 243.531 61.4531 243.578 61.375C243.62 61.2865 243.641 61.0964 243.641 60.8047V57.2891C243.641 56.9141 243.607 56.6771 243.539 56.5781C243.414 56.4375 243.141 56.3646 242.719 56.3594L242.68 56.0938L244.602 55.6094V56.2969C245.487 55.8125 246.245 55.5703 246.875 55.5703C247.667 55.5703 248.201 55.9245 248.477 56.6328C248.612 56.9766 248.68 57.3958 248.68 57.8906V60.3828C248.68 60.862 248.714 61.1745 248.781 61.3203C248.854 61.4609 249.01 61.5547 249.25 61.6016L249.711 61.6953V62H246.758V61.6797L247.289 61.5703C247.487 61.5286 247.607 61.4661 247.648 61.3828C247.69 61.2943 247.711 61.1042 247.711 60.8125V58.1406C247.701 56.9062 247.318 56.2839 246.562 56.2734Z" fill="white"/>
</svg>
